<svg xmlns="http://www.w3.org/2000/svg" xmlns:xlink="http://www.w3.org/1999/xlink" width="265" height="233" viewBox="0 0 265 233">
  <defs>
    <clipPath id="clip-Artboard_9">
      <rect width="265" height="233"/>
    </clipPath>
  </defs>
  <g id="Artboard_9" data-name="Artboard – 9" clip-path="url(#clip-Artboard_9)">
    <g id="Group_226" data-name="Group 226" transform="translate(-103.868 -631.616)">
      <g id="Group_222" data-name="Group 222">
        <g id="Group_221" data-name="Group 221">
          <g id="Group_219" data-name="Group 219">
            <path id="Path_74" data-name="Path 74" d="M182.339,841.014c.617-2.547,5.629-21.308,5.839-21.308h4.008l22.029,22.184,22.028,22.184c-3,0-7.347-.09-10.293-.307-6.315-.467-12.621-1.077-18.917-1.752-4.649-.5-9.3-1.029-13.928-1.674-3.492-.487-7.495-1.174-9.812-4.207C179.989,851.809,181.162,845.882,182.339,841.014Z" fill="#e0e0e0"/>
            <path id="Path_75" data-name="Path 75" d="M187.839,820.971H191.8l12.76,12.106,9.389,8.91,6.252,5.932,4.183,4.212,4.059,4.087,7.383,7.436c-2.839,0-7.377-.085-10.168-.292-5.983-.442-12.726-1.02-18.691-1.659-4.4-.472-9.471-.974-13.858-1.586-3.308-.461-7.623-1.112-9.818-3.986-3.2-4.19-2.1-9.909-1.013-14.635.274-1.187,1.461-5.752,2.673-10.278C186.323,826.1,187.722,821.026,187.839,820.971Z" fill="#dfdfdf"/>
            <path id="Path_76" data-name="Path 76" d="M187.5,822.235h3.915l12.831,11.434,9.439,8.415,6.286,5.6,4.133,4.163,4.011,4.038,7.294,7.347c-2.681,0-7.406-.081-10.042-.276-5.651-.417-12.831-.963-18.464-1.567-4.16-.446-9.645-.92-13.789-1.5-3.124-.435-7.75-1.05-9.824-3.764-3.1-4.056-2.078-9.567-1.072-14.152.259-1.178,1.377-5.551,2.528-9.886C186.047,827.2,187.377,822.346,187.5,822.235Z" fill="#dedede"/>
            <path id="Path_77" data-name="Path 77" d="M187.16,823.5h3.868l12.9,10.761,9.488,7.92,6.321,5.273,4.084,4.112,3.962,3.99,7.206,7.257c-2.524,0-7.436-.075-9.917-.259-5.318-.393-12.936-.907-18.238-1.475-3.915-.42-9.819-.866-13.719-1.41-2.94-.409-7.878-.988-9.83-3.543-2.993-3.921-2.054-9.224-1.131-13.667.243-1.171,1.293-5.351,2.382-9.494C185.77,828.293,187.033,823.666,187.16,823.5Z" fill="#ddd"/>
            <path id="Path_78" data-name="Path 78" d="M186.821,824.764h3.821l12.973,10.089,9.538,7.425,6.355,4.943,4.035,4.063,3.913,3.941,7.118,7.168c-2.366,0-7.466-.071-9.792-.243-4.986-.369-13.041-.85-18.012-1.383-3.67-.394-9.992-.812-13.649-1.322-2.757-.384-8.006-.926-9.836-3.321-2.889-3.787-2.031-8.883-1.19-13.184.227-1.163,1.21-5.15,2.237-9.1C185.493,829.392,186.688,824.986,186.821,824.764Z" fill="#dcdcdc"/>
            <path id="Path_79" data-name="Path 79" d="M186.481,826.029h3.775l13.044,9.416,9.587,6.93,6.39,4.613L223.262,851l3.865,3.893,7.029,7.079c-2.208,0-7.5-.067-9.666-.227-4.653-.344-13.146-.794-17.785-1.291-3.426-.367-10.167-.758-13.58-1.233-2.573-.359-8.134-.865-9.841-3.1-2.786-3.652-2.011-8.542-1.251-12.7.212-1.156,1.127-4.95,2.093-8.71C185.217,830.49,186.344,826.306,186.481,826.029Z" fill="#dbdbdb"/>
            <path id="Path_80" data-name="Path 80" d="M186.142,827.293h3.728l13.114,8.743,9.637,6.436,6.425,4.284,3.936,3.963,3.816,3.844,6.941,6.989c-2.051,0-7.525-.061-9.541-.21-4.321-.32-13.251-.737-17.559-1.2-3.181-.341-10.341-.7-13.509-1.145-2.39-.333-8.262-.8-9.848-2.879-2.682-3.518-1.992-8.2-1.31-12.216.2-1.148,1.043-4.749,1.948-8.318C184.94,831.588,186,827.626,186.142,827.293Z" fill="#dadada"/>
            <path id="Path_81" data-name="Path 81" d="M185.8,828.557h3.681l13.185,8.071,9.687,5.94,6.459,3.955c.408.411,3.487,3.511,3.886,3.914l3.769,3.795,6.851,6.9c-1.892,0-7.554-.057-9.415-.2-3.988-.294-13.356-.68-17.332-1.106-2.937-.315-10.515-.649-13.44-1.057-2.206-.307-8.39-.741-9.854-2.657-2.579-3.384-1.974-7.864-1.369-11.732.179-1.142.959-4.549,1.8-7.926C184.663,832.686,185.654,828.946,185.8,828.557Z" fill="#d9d9d9"/>
            <path id="Path_82" data-name="Path 82" d="M185.463,829.822H189.1l13.256,7.4,9.736,5.445,6.494,3.625c.466.47,3.38,3.405,3.837,3.864l3.72,3.746,6.763,6.811c-1.735,0-7.584-.052-9.29-.178-3.656-.27-13.461-.623-17.106-1.014-2.692-.289-10.689-.595-13.37-.969-2.022-.282-8.518-.679-9.86-2.436-2.475-3.249-1.958-7.524-1.428-11.248.162-1.134.876-4.348,1.657-7.533C184.387,833.784,185.31,830.266,185.463,829.822Z" fill="#d8d8d8"/>
            <path id="Path_83" data-name="Path 83" d="M185.124,831.086h3.588l13.327,6.726,9.786,4.95,6.528,3.3,3.787,3.814,3.672,3.7,6.675,6.722c-1.578,0-7.614-.047-9.165-.162-3.324-.246-13.566-.567-16.88-.922-2.447-.262-10.862-.541-13.3-.881-1.838-.256-8.646-.618-9.865-2.214-2.372-3.115-1.946-7.186-1.488-10.764.144-1.128.792-4.148,1.512-7.142C184.11,834.882,184.965,831.586,185.124,831.086Z" fill="#d7d7d7"/>
            <path id="Path_84" data-name="Path 84" d="M184.784,832.351h3.542l13.4,6.053,9.836,4.455,6.563,2.966,3.738,3.764,3.623,3.649,6.586,6.633c-1.419,0-7.643-.043-9.039-.146-2.991-.221-13.671-.51-16.653-.83-2.2-.236-11.037-.487-13.231-.793-1.654-.23-8.773-.556-9.871-1.993-2.268-2.98-1.934-6.847-1.547-10.28.126-1.121.708-3.946,1.367-6.749C183.833,835.98,184.621,832.905,184.784,832.351Z" fill="#d7d7d7"/>
            <path id="Path_85" data-name="Path 85" d="M184.445,833.615h3.495L201.408,839l9.885,3.96,6.6,2.636,3.688,3.715,3.575,3.6,6.5,6.543c-1.262,0-7.673-.037-8.914-.129-2.659-.2-13.776-.454-16.427-.738-1.958-.21-11.211-.433-13.161-.705-1.47-.2-8.9-.494-9.877-1.771-2.164-2.846-1.924-6.51-1.607-9.8.108-1.115.625-3.746,1.222-6.358C183.557,837.078,184.276,834.225,184.445,833.615Z" fill="#d6d6d6"/>
            <path id="Path_86" data-name="Path 86" d="M184.106,834.88h3.448l13.539,4.708,9.935,3.465,6.632,2.307,3.639,3.664,3.526,3.552c1.311,1.319,5.3,5.338,6.409,6.454-1.1,0-7.7-.033-8.788-.113-2.326-.172-13.881-.4-16.2-.646-1.713-.183-11.384-.379-13.091-.616-1.286-.18-9.029-.433-9.883-1.551-2.061-2.711-1.917-6.172-1.666-9.312a56.489,56.489,0,0,1,1.077-5.965C183.275,838.175,183.932,835.545,184.106,834.88Z" fill="#d5d5d5"/>
            <path id="Path_87" data-name="Path 87" d="M183.766,836.144h3.4l13.61,4.035,9.984,2.971,6.667,1.977,3.589,3.615,3.479,3.5,6.32,6.365c-.946,0-7.732-.029-8.663-.1-1.994-.147-13.986-.34-15.974-.553-1.468-.157-11.559-.324-13.021-.528-1.1-.154-9.158-.371-9.889-1.329-1.958-2.577-1.912-5.835-1.726-8.829a47.588,47.588,0,0,1,.932-5.573C183,839.273,183.587,836.865,183.766,836.144Z" fill="#d4d4d4"/>
            <path id="Path_88" data-name="Path 88" d="M183.427,837.409h3.355l13.68,3.362,10.035,2.475,6.7,1.648,3.54,3.566,3.43,3.453,6.232,6.276c-.789,0-7.762-.023-8.538-.081-1.661-.123-14.091-.283-15.748-.461-1.223-.131-11.733-.27-12.951-.44-.919-.128-9.285-.309-9.895-1.107-1.854-2.443-1.909-5.5-1.785-8.345a40.011,40.011,0,0,1,.787-5.181C182.721,840.371,183.243,838.185,183.427,837.409Z" fill="#d3d3d3"/>
            <path id="Path_89" data-name="Path 89" d="M183.088,838.673H186.4l13.751,2.69,10.084,1.98,6.736,1.318,3.491,3.516,3.381,3.4,6.143,6.187c-.631,0-7.791-.019-8.412-.065-1.329-.1-14.2-.227-15.522-.369-.978-.105-11.906-.216-12.881-.352-.735-.1-9.413-.247-9.9-.886-1.75-2.308-1.908-5.16-1.844-7.861a33.826,33.826,0,0,1,.641-4.788C182.445,841.469,182.9,839.505,183.088,838.673Z" fill="#d2d2d2"/>
            <path id="Path_90" data-name="Path 90" d="M182.748,839.937h3.262l13.822,2.018,10.134,1.485,6.77.989,3.441,3.466,3.333,3.356,6.055,6.1c-.473,0-7.821-.015-8.287-.049-1-.074-14.3-.17-15.295-.277-.734-.078-12.081-.162-12.812-.264-.551-.077-9.541-.185-9.907-.664-1.646-2.174-1.909-4.823-1.9-7.377a28.62,28.62,0,0,1,.5-4.4C182.169,842.567,182.554,840.825,182.748,839.937Z" fill="#d1d1d1"/>
            <path id="Path_91" data-name="Path 91" d="M182.409,841.2h3.215l13.893,1.345,10.183.99,6.8.659,3.393,3.416,3.284,3.308,5.966,6.008c-.315,0-7.85-.009-8.16-.032-.665-.049-14.407-.114-15.07-.185-.489-.052-12.254-.108-12.742-.176-.368-.051-9.669-.123-9.913-.443A11.433,11.433,0,0,1,181.3,849.2a24.484,24.484,0,0,1,.352-4C181.893,843.666,182.209,842.145,182.409,841.2Z" fill="#d0d0d0"/>
            <path id="Path_92" data-name="Path 92" d="M182.07,842.466h3.168l13.964.673,10.232.495,6.839.329,3.343,3.367,3.236,3.259,5.878,5.919c-.158,0-7.88-.005-8.035-.016-.333-.025-14.512-.057-14.844-.093-.244-.026-12.428-.054-12.672-.088-.184-.025-9.8-.061-9.918-.221a11.147,11.147,0,0,1-2.023-6.409,21.5,21.5,0,0,1,.207-3.613C181.62,844.764,181.864,843.465,182.07,842.466Z" fill="#cfcfcf"/>
            <path id="Path_93" data-name="Path 93" d="M183.259,856.088a10.906,10.906,0,0,1-2.082-5.926,19.07,19.07,0,0,1,.061-3.22c.1-1.08.282-2.158.492-3.211h34.312l3.294,3.316,3.188,3.211,5.789,5.83H183.259Z" fill="#cecece"/>
          </g>
          <path id="Path_94" data-name="Path 94" d="M184.108,844.423a17.505,17.505,0,0,1,.616-3.237l5.425-18.641q.414-1.419.826-2.839l46.13.2s-3.437,18-3.344,21.538a13.755,13.755,0,0,0,3.811,9.255c2.5,2.5,5.917,2.8,9.259,3.135l45.387,4.6q2.517.255,5.034.51a1.4,1.4,0,0,1,.819.352c.681.641-.1,1.292-.5,1.312l-61.33,3.473-43.5-6.643C186.032,856.405,183.554,850.317,184.108,844.423Z" fill="#e3e0e3"/>
          <path id="Path_95" data-name="Path 95" d="M320.441,664.274,108.772,631.667a4.254,4.254,0,0,0-4.831,4.979L136.4,811.888a10.272,10.272,0,0,0,10.1,8.4H362.6a4.711,4.711,0,0,0,4.545-5.951l-39.1-143.286A9.35,9.35,0,0,0,320.441,664.274Z" fill="#ededed"/>
          <g id="Group_220" data-name="Group 220">
            <path id="Path_96" data-name="Path 96" d="M189.392,825.147l.757-2.6q.414-1.419.826-2.839l46.13.2s-.423,2.217-.969,5.246Z" fill="#c1c1c1"/>
          </g>
          <path id="Path_97" data-name="Path 97" d="M321.1,664.274,109.427,631.667a4.254,4.254,0,0,0-4.831,4.979l32.459,175.242a10.273,10.273,0,0,0,10.1,8.4h216.1a4.711,4.711,0,0,0,4.544-5.951l-39.1-143.286A9.35,9.35,0,0,0,321.1,664.274Z" fill="#292935"/>
          <path id="Path_98" data-name="Path 98" d="M321.354,672.884,116.077,642.815,146.218,805.7l211.915,4.184Z" fill="#333334"/>
        </g>
      </g>
      <g id="Group_223" data-name="Group 223">
        <path id="Path_99" data-name="Path 99" d="M358.133,809.879l-206.555-2.22L118.436,642.974l202.193,29.684Z" fill="#fff"/>
        <path id="Path_100" data-name="Path 100" d="M139.985,658.547l-7.46-1a4.979,4.979,0,0,1-3.818-3.358h0a1.877,1.877,0,0,1,2.237-2.52l7.459,1.045a4.947,4.947,0,0,1,3.756,3.324h0A1.852,1.852,0,0,1,139.985,658.547Z" fill="#2a5ffc"/>
        <path id="Path_101" data-name="Path 101" d="M158.722,661.158l-10.487-1.412a5.078,5.078,0,0,1-3.925-3.423h0a1.938,1.938,0,0,1,2.348-2.555l10.485,1.47a5.024,5.024,0,0,1,3.844,3.377h0A1.9,1.9,0,0,1,158.722,661.158Z" fill="#061861"/>
        <path id="Path_102" data-name="Path 102" d="M192.676,666l-10.487-1.412a5.076,5.076,0,0,1-3.925-3.423h0a1.938,1.938,0,0,1,2.348-2.555l10.485,1.469a5.027,5.027,0,0,1,3.844,3.378h0A1.9,1.9,0,0,1,192.676,666Z" fill="#e2e5ef"/>
        <path id="Path_103" data-name="Path 103" d="M215.77,669.385l-10.487-1.413a5.076,5.076,0,0,1-3.925-3.423h0a1.938,1.938,0,0,1,2.348-2.555l10.485,1.47a5.028,5.028,0,0,1,3.844,3.377h0A1.9,1.9,0,0,1,215.77,669.385Z" fill="#e2e5ef"/>
        <path id="Path_104" data-name="Path 104" d="M238.269,672.772l-10.487-1.412a5.078,5.078,0,0,1-3.925-3.423h0a1.939,1.939,0,0,1,2.348-2.556l10.485,1.47a5.027,5.027,0,0,1,3.844,3.378h0A1.9,1.9,0,0,1,238.269,672.772Z" fill="#e2e5ef"/>
        <path id="Path_105" data-name="Path 105" d="M299.533,699.359,160.781,682.794a6.438,6.438,0,0,1-5.3-4.354h0c-.485-2.1,1.11-3.568,3.533-3.264l138.693,17.448a5.575,5.575,0,0,1,4.3,3.78h0A2.166,2.166,0,0,1,299.533,699.359Z" fill="#e2e5ef"/>
        <path id="Path_106" data-name="Path 106" d="M254.231,751.121l-78.812-5.154a6.118,6.118,0,0,1-5.355-4.26h0c-.5-2.179,1.088-3.816,3.525-3.64l78.772,5.689a5.645,5.645,0,0,1,4.751,3.941h0A2.6,2.6,0,0,1,254.231,751.121Z" fill="#e2e5ef"/>
        <path id="Path_107" data-name="Path 107" d="M235.317,761.3l-57.07-3.128a6.058,6.058,0,0,1-5.367-4.241h0c-.505-2.2,1.085-3.865,3.524-3.714l57.039,3.519a5.721,5.721,0,0,1,4.915,4.01h0A2.746,2.746,0,0,1,235.317,761.3Z" fill="#e2e5ef"/>
        <path id="Path_108" data-name="Path 108" d="M320.865,778.114,181.493,772.18a5.992,5.992,0,0,1-5.379-4.219h0c-.51-2.212,1.079-3.921,3.521-3.8l139.322,6.908a5.178,5.178,0,0,1,4.349,3.675h0C323.832,776.676,322.736,778.194,320.865,778.114Z" fill="#e2e5ef"/>
        <path id="Path_109" data-name="Path 109" d="M263.325,786.938l-79-2.515a5.933,5.933,0,0,1-5.39-4.2h0c-.513-2.228,1.075-3.971,3.519-3.875l78.957,3.073a5.472,5.472,0,0,1,4.777,3.89h0A2.741,2.741,0,0,1,263.325,786.938Z" fill="#e2e5ef"/>
        <path id="Path_110" data-name="Path 110" d="M244.434,798.089,187.221,796.9a5.872,5.872,0,0,1-5.4-4.179h0c-.517-2.244,1.07-4.021,3.516-3.953l57.184,1.6a5.545,5.545,0,0,1,4.942,3.954h0A2.893,2.893,0,0,1,244.434,798.089Z" fill="#e2e5ef"/>
        <path id="Path_111" data-name="Path 111" d="M267.922,708.3l-22.854-2.45a6.5,6.5,0,0,1-5.256-4.449l-.449-1.772c-.555-2.19.9-3.759,3.233-3.488l22.844,2.651a6.365,6.365,0,0,1,5.046,4.337l.451,1.721A2.6,2.6,0,0,1,267.922,708.3Z" fill="#e2e5ef"/>
        <path id="Path_112" data-name="Path 112" d="M230.784,704.317l-24.527-2.629a6.772,6.772,0,0,1-5.56-4.624l-.444-1.833c-.55-2.268,1.055-3.882,3.556-3.592l24.511,2.844a6.616,6.616,0,0,1,5.328,4.5l.449,1.78C234.652,702.973,233.166,704.573,230.784,704.317Z" fill="#e2e5ef"/>
        <path id="Path_113" data-name="Path 113" d="M190.985,700.05,164.6,697.221c-2.694-.289-5.353-2.456-5.9-4.812l-.438-1.9c-.541-2.349,1.228-4.013,3.92-3.7l26.364,3.059a6.894,6.894,0,0,1,5.639,4.681l.444,1.843C195.181,698.677,193.545,700.325,190.985,700.05Z" fill="#e2e5ef"/>
        <path id="Path_114" data-name="Path 114" d="M192.472,714.549l-24.55-2.309a6.686,6.686,0,0,1-5.574-4.6l-.448-1.849c-.554-2.288,1.049-3.945,3.552-3.687l24.535,2.527a6.535,6.535,0,0,1,5.34,4.481l.452,1.795C196.339,713.133,194.856,714.773,192.472,714.549Z" fill="#2a5ffc"/>
      </g>
      <path id="Path_115" data-name="Path 115" d="M315.086,679.954c0,2.043-1.683,3.239-3.833,2.652a5.75,5.75,0,0,1-4.12-5.1c0-2.2,1.882-3.331,4.12-2.564A5.774,5.774,0,0,1,315.086,679.954Z" fill="#061861"/>
      <g id="Group_225" data-name="Group 225">
        <g id="Group_95" data-name="Group 95">
          <path id="Path_13" data-name="Path 13" d="M214.288,722.912l15.341,5.178,11.81-3.341,8.721.37,3.739,11.795-37.042-3.295Z" fill="#c7eed5"/>
          <path id="Path_14" data-name="Path 14" d="M214.257,722.935l16.3,5.223,10.433-3.621,9.324.641" fill="none" stroke="#1db959" stroke-width="1"/>
        </g>
        <g id="_61.5_" data-name=" 61.5 " style="isolation: isolate">
          <g id="Group_224" data-name="Group 224" style="isolation: isolate">
            <path id="Path_116" data-name="Path 116" d="M172.373,729.663a4.641,4.641,0,0,1-1.538-.4,4.461,4.461,0,0,1-1.241-.843,4.38,4.38,0,0,1-.886-1.222,5.377,5.377,0,0,1-.481-1.545,5.2,5.2,0,0,1,.014-1.857,5.267,5.267,0,0,1,.555-1.536,5.2,5.2,0,0,1,.9-1.192,6.08,6.08,0,0,1,1.062-.838l2.438.25a15.332,15.332,0,0,0-1.327.959,6.984,6.984,0,0,0-.989.976,4.055,4.055,0,0,0-.64,1.076,4.307,4.307,0,0,0-.28,1.263l.116.037a2.524,2.524,0,0,1,.242-.485,1.46,1.46,0,0,1,.379-.4,1.585,1.585,0,0,1,.558-.248,2.356,2.356,0,0,1,.782-.035,3.572,3.572,0,0,1,1.141.306,3.613,3.613,0,0,1,.99.66,3.862,3.862,0,0,1,.744.962,3.786,3.786,0,0,1,.414,1.2,2.973,2.973,0,0,1-.027,1.268,2.06,2.06,0,0,1-.53.952,2.305,2.305,0,0,1-.988.574A3.737,3.737,0,0,1,172.373,729.663Zm-.229-1.387a1.355,1.355,0,0,0,1.133-.3,1.23,1.23,0,0,0,.24-1.128l-.034-.2a2,2,0,0,0-.629-1.2,2.154,2.154,0,0,0-1.263-.518,1.36,1.36,0,0,0-1.14.289,1.243,1.243,0,0,0-.242,1.128l.033.2a2,2,0,0,0,.623,1.213A2.138,2.138,0,0,0,172.144,728.276Z" fill="#1db959"/>
            <path id="Path_117" data-name="Path 117" d="M177.711,729.979l-.248-1.429,2.619.239-1.164-6.513-.121-.013-1.641,2.148-1.273-1.015,1.874-2.447,2.67.273,1.4,7.726,2.157.2.262,1.417Z" fill="#1db959"/>
            <path id="Path_118" data-name="Path 118" d="M186.651,730.919a1.389,1.389,0,0,1-.861-.344,1.284,1.284,0,0,1-.391-.717l-.045-.238a.789.789,0,0,1,.13-.675.833.833,0,0,1,.755-.2,1.37,1.37,0,0,1,.865.35,1.334,1.334,0,0,1,.386.72l.045.238a.781.781,0,0,1-.121.67A.844.844,0,0,1,186.651,730.919Z" fill="#1db959"/>
            <path id="Path_119" data-name="Path 119" d="M193.861,724.016l-4.071-.408.384,2.994.092.009a3.127,3.127,0,0,1,.21-.5,1.145,1.145,0,0,1,.31-.375,1.247,1.247,0,0,1,.463-.214,2.1,2.1,0,0,1,.69-.027,3.642,3.642,0,0,1,1.13.3,3.7,3.7,0,0,1,.988.644,3.989,3.989,0,0,1,1.224,2.172,3.211,3.211,0,0,1,.037,1.238,1.9,1.9,0,0,1-.447.937,2,2,0,0,1-.923.566,3.671,3.671,0,0,1-1.4.108,4.9,4.9,0,0,1-1.159-.239,4.632,4.632,0,0,1-.958-.454,4.526,4.526,0,0,1-.768-.605,6.871,6.871,0,0,1-.616-.695l1.079-.852c.139.185.281.358.425.521a2.867,2.867,0,0,0,.48.435,2.653,2.653,0,0,0,.566.315,2.329,2.329,0,0,0,.682.159,1.165,1.165,0,0,0,1.085-.324,1.345,1.345,0,0,0,.162-1.134l-.021-.1a2.036,2.036,0,0,0-.625-1.139,2.016,2.016,0,0,0-1.2-.508,1.347,1.347,0,0,0-1.345.533l-1.458-.33-.642-5.017,5.328.545Z" fill="#1db959"/>
            <path id="Path_120" data-name="Path 120" d="M198.6,727.86a2.836,2.836,0,0,1-1.8-.806,3.727,3.727,0,0,1-.964-1.943,2.253,2.253,0,0,1,.182-1.817,1.56,1.56,0,0,1,1.516-.47,2.818,2.818,0,0,1,1.771.8,3.752,3.752,0,0,1,.956,1.92,2.31,2.31,0,0,1-.157,1.824A1.536,1.536,0,0,1,198.6,727.86Zm-.206-.973q.792.076.535-1.134l-.145-.686q-.257-1.2-1.044-1.283c-.526-.053-.706.321-.537,1.126l.144.687Q197.6,726.811,198.391,726.887Zm.443,4.976,4.228-8.326,1.447.148L200.326,732Zm7.076.783a2.772,2.772,0,0,1-1.769-.8,3.82,3.82,0,0,1-.979-1.949,2.315,2.315,0,0,1,.151-1.833,1.5,1.5,0,0,1,1.474-.486,2.808,2.808,0,0,1,1.764.795,3.827,3.827,0,0,1,.977,1.929,2.342,2.342,0,0,1-.133,1.837A1.5,1.5,0,0,1,205.91,732.646Zm-.217-.98q.78.07.509-1.147l-.153-.69q-.27-1.211-1.048-1.284t-.512,1.138l.153.692Q204.91,731.594,205.693,731.666Z" fill="#1db959"/>
          </g>
        </g>
      </g>
    </g>
  </g>
</svg>
