<svg id="Group_1" data-name="Group 1" xmlns="http://www.w3.org/2000/svg" width="97.513" height="23.023" viewBox="0 0 97.513 23.023">
  <path id="Path_1" data-name="Path 1" d="M3.084,17.883a3.076,3.076,0,0,1-2.337-.81A3.147,3.147,0,0,1,0,14.83V0H3.084V15.39H4.767v2.492Z" transform="translate(0)" fill="#2a5ffc"/>
  <path id="Path_2" data-name="Path 2" d="M26.051,29.109a6.24,6.24,0,0,1-2.492-.467,5.033,5.033,0,0,1-1.869-1.34,6.191,6.191,0,0,1-1.184-2.087,8.318,8.318,0,0,1-.405-2.742,8.255,8.255,0,0,1,.405-2.71,5.986,5.986,0,0,1,1.153-2.056,5.289,5.289,0,0,1,1.838-1.34,6.191,6.191,0,0,1,2.461-.467,5.842,5.842,0,0,1,2.555.5,5.221,5.221,0,0,1,1.776,1.371,6.27,6.27,0,0,1,1.059,2.025,9.032,9.032,0,0,1,.343,2.461v1.028H23.309V23.6a2.806,2.806,0,0,0,3.084,3.022,3.505,3.505,0,0,0,1.9-.467A4.833,4.833,0,0,0,29.6,24.935L31.284,26.8a5.271,5.271,0,0,1-2.119,1.713A7.514,7.514,0,0,1,26.051,29.109Zm-.062-10.873a2.582,2.582,0,0,0-1.963.81,3.016,3.016,0,0,0-.717,2.119v.187h5.172v-.218a3.248,3.248,0,0,0-.654-2.118A2.26,2.26,0,0,0,25.988,18.237Z" transform="translate(-13.838 -10.946)" fill="#2a5ffc"/>
  <path id="Path_3" data-name="Path 3" d="M60.3,29.518,64.6,23.1l-4.206-6.2h3.52l2.617,4.175h.093L69.21,16.9h3.3l-4.3,6.262,4.3,6.356h-3.52l-2.648-4.362H66.25L63.6,29.518Z" transform="translate(-41.514 -11.635)" fill="#2a5ffc"/>
  <path id="Path_4" data-name="Path 4" d="M120.288,28.829a2.164,2.164,0,0,1-1.62-.592,2.718,2.718,0,0,1-.748-1.589h-.156a2.942,2.942,0,0,1-1.277,1.838,4.427,4.427,0,0,1-2.4.623,4.144,4.144,0,0,1-2.96-1A3.664,3.664,0,0,1,110.1,25.4a3.237,3.237,0,0,1,1.4-2.9,7.176,7.176,0,0,1,3.988-.966h2.15v-.9a2.305,2.305,0,0,0-.561-1.651,2.433,2.433,0,0,0-1.776-.592,2.964,2.964,0,0,0-1.745.467,4.791,4.791,0,0,0-1.122,1.122L110.6,18.33a5.679,5.679,0,0,1,1.869-1.776,5.967,5.967,0,0,1,3.084-.654,5.757,5.757,0,0,1,3.894,1.153,4.224,4.224,0,0,1,1.34,3.334v5.919h1.246V28.8h-1.745Zm-5.14-1.963a3.282,3.282,0,0,0,1.776-.467,1.453,1.453,0,0,0,.717-1.34V23.408h-1.994c-1.62,0-2.43.5-2.43,1.527v.405a1.346,1.346,0,0,0,.5,1.153A2.378,2.378,0,0,0,115.147,26.866Z" transform="translate(-75.799 -10.946)" fill="#061861"/>
  <path id="Path_5" data-name="Path 5" d="M163.564,27.43h-.125a4.83,4.83,0,0,1-.436.9,3.11,3.11,0,0,1-.685.748,3.2,3.2,0,0,1-1.028.53,4.558,4.558,0,0,1-1.371.187,3.643,3.643,0,0,1-2.991-1.277,5.646,5.646,0,0,1-1.028-3.645V16.9h3.084v7.664a3.31,3.31,0,0,0,.5,1.994,1.854,1.854,0,0,0,1.62.685,2.881,2.881,0,0,0,.9-.125,2.587,2.587,0,0,0,.779-.374,2.171,2.171,0,0,0,.561-.623,1.58,1.58,0,0,0,.218-.872V16.9h3.084V29.518h-3.084Z" transform="translate(-107.33 -11.635)" fill="#061861"/>
  <path id="Path_6" data-name="Path 6" d="M210.824,25.62a4.355,4.355,0,0,1-.343,1.745,3.213,3.213,0,0,1-1.153,1.277,6.3,6.3,0,0,1-2.056.779,14.467,14.467,0,0,1-3.084.28,13.615,13.615,0,0,1-2.71-.218,6.373,6.373,0,0,1-1.838-.592,2.518,2.518,0,0,1-1.028-.935,2.391,2.391,0,0,1-.312-1.246,2.191,2.191,0,0,1,.592-1.651,2.723,2.723,0,0,1,1.651-.748v-.28a1.962,1.962,0,0,1-1.184-.748,2.224,2.224,0,0,1-.436-1.34,1.99,1.99,0,0,1,.187-.872,2.132,2.132,0,0,1,.53-.654,2.946,2.946,0,0,1,.748-.436,4.077,4.077,0,0,1,.872-.28v-.093a3.639,3.639,0,0,1-1.713-1.464,4.244,4.244,0,0,1-.561-2.212,3.924,3.924,0,0,1,1.34-3.115,5.761,5.761,0,0,1,3.894-1.184c.374,0,.779.031,1.153.062a5.834,5.834,0,0,1,1.059.249v-.405A1.6,1.6,0,0,1,208.207,9.7h1.963v2.368h-2.679v.343a3.491,3.491,0,0,1,1.464,1.464,4.361,4.361,0,0,1,.5,2.056,3.935,3.935,0,0,1-1.308,3.084,5.7,5.7,0,0,1-3.894,1.153,7.169,7.169,0,0,1-1.932-.218,2.238,2.238,0,0,0-.623.436.916.916,0,0,0-.28.685c0,.623.561.935,1.651.935h3.4a4.774,4.774,0,0,1,3.365.966A3.571,3.571,0,0,1,210.824,25.62Zm-2.9.374a1.031,1.031,0,0,0-.5-.935,3.082,3.082,0,0,0-1.682-.343h-4.3a1.516,1.516,0,0,0-.654,1.308,1.218,1.218,0,0,0,.592,1.122,3.774,3.774,0,0,0,2.056.405H205a4.868,4.868,0,0,0,2.212-.374A1.224,1.224,0,0,0,207.927,25.994Zm-3.739-7.944c1.527,0,2.274-.654,2.274-1.932v-.405c0-1.277-.748-1.932-2.274-1.932s-2.274.654-2.274,1.932v.405C201.914,17.4,202.693,18.049,204.188,18.049Z" transform="translate(-136.521 -6.678)" fill="#061861"/>
  <path id="Path_7" data-name="Path 7" d="M251.464,27.43h-.125a4.829,4.829,0,0,1-.436.9,3.11,3.11,0,0,1-.685.748,3.2,3.2,0,0,1-1.028.53,4.558,4.558,0,0,1-1.371.187,3.643,3.643,0,0,1-2.991-1.277,5.646,5.646,0,0,1-1.028-3.645V16.9h3.084v7.664a3.31,3.31,0,0,0,.5,1.994,1.854,1.854,0,0,0,1.62.685,2.88,2.88,0,0,0,.9-.125,2.587,2.587,0,0,0,.779-.374,2.171,2.171,0,0,0,.561-.623,1.58,1.58,0,0,0,.218-.872V16.9h3.084V29.518h-3.084Z" transform="translate(-167.845 -11.635)" fill="#061861"/>
  <path id="Path_8" data-name="Path 8" d="M289.9,29.518V16.9h3.084v2.617h.125a5.167,5.167,0,0,1,.374-.966,3.4,3.4,0,0,1,.654-.841,3.351,3.351,0,0,1,.966-.592,3.391,3.391,0,0,1,1.309-.218h.685v2.929h-.935a4.739,4.739,0,0,0-2.368.467,1.617,1.617,0,0,0-.81,1.5v7.726Z" transform="translate(-199.583 -11.635)" fill="#061861"/>
</svg>
